<svg xmlns="http://www.w3.org/2000/svg" version="1.1" xmlns:xlink="http://www.w3.org/1999/xlink" viewBox="0 0 700 700" style="overflow: hidden; display: block;" width="700" height="700"><defs><linearGradient id="two-3" x1="350" y1="-350" x2="350" y2="350" spreadMethod="pad" gradientUnits="userSpaceOnUse"><stop offset="0%" stop-color="#ff772b" stop-opacity="1"></stop><stop offset="100%" stop-color="hsl(167, 52%, 78%)" stop-opacity="1"></stop></linearGradient></defs><g id="two-0" transform="matrix(1 0 0 1 0 0)" opacity="1"><path transform="matrix(1 0 0 1 350 350)" id="two-279" d="M 297.882342 31.308695 C 300.671381 41.449194 286.483161 50.219791 285.548701 60.69525 C 284.509509 72.344785 290.213214 83.996179 293.263703 95.287153 C 296.977265 109.0324 315.023535 125.102648 306.355946 136.398455 C 291.020671 156.383747 246.142514 113.425552 230.102354 132.849656 C 221.104412 143.745867 236.767274 160.755608 240.146663 174.476764 C 244.537654 192.305274 266.543786 215.31043 253.707412 228.43918 C 239.419403 243.052628 213.251995 219.21013 193.317856 214.701231 C 178.597797 211.371703 163.770446 203.877578 148.699184 204.666868 C 139.811462 205.132323 127.825641 205.728187 123.149 213.300326 C 107.021368 239.413231 163.982778 292.85309 135.980107 305.416322 C 108.364771 317.805779 105.157152 225.70867 76.539732 235.565075 C 44.028035 246.762746 103.900969 326.35359 72.200091 339.674726 C 55.687417 346.613574 49.774187 302.508736 31.882015 303.337117 C 16.375929 304.055026 15.515148 337.438588 0 337.922593 C -14.736046 338.382294 -24.743858 319.702892 -32.269645 307.02516 C -44.184342 286.95399 -31.755644 252.319028 -50.74801 238.750614 C -58.125022 233.480372 -69.346803 238.438164 -78.161829 240.557374 C -90.662713 243.562696 -102.037503 260.771858 -113.954631 255.946291 C -125.223541 251.383206 -117.146817 227.137237 -128.140137 221.945227 C -141.359017 215.702113 -157.803312 241.899485 -170.551155 234.743525 C -181.00635 228.874536 -169.023192 205.028166 -179.705124 199.582758 C -203.145841 187.633212 -235.423431 247.340191 -253.94593 228.653941 C -269.556669 212.905193 -233.108164 188.07275 -228.895005 166.301955 C -226.753497 155.236071 -220.919996 140.121684 -228.885005 132.146819 C -244.690883 116.321381 -280.260163 147.288755 -296.662919 132.082841 C -305.115004 124.24747 -303.766765 107.900279 -299.336823 97.260429 C -290.563001 76.187433 -241.156362 74.582326 -246.660093 52.429221 C -253.27133 25.818287 -317.248249 59.766946 -327.782456 34.451324 C -332.950826 22.030787 -305.806521 13.451728 -305.987632 0 C -306.172749 -13.749247 -329.300467 -20.850626 -329.204464 -34.600784 C -329.118074 -46.973998 -316.76426 -56.829618 -307.879848 -65.441882 C -297.831328 -75.182595 -282.318483 -78.729055 -272.264458 -88.464085 C -265.044052 -95.455403 -263.185227 -107.784406 -254.915011 -113.495476 C -243.509321 -121.371775 -220.435241 -111.28599 -214.156408 -123.64326 C -206.834445 -138.0535 -235.15498 -153.045966 -232.622383 -169.010055 C -231.06754 -178.810927 -222.582355 -188.690762 -213.221991 -191.985943 C -197.697108 -197.451253 -177.34004 -172.437217 -164.269079 -182.439295 C -153.832046 -190.425854 -161.142742 -209.021816 -161.40962 -222.161283 C -161.890947 -245.858949 -190.222879 -282.079366 -169.471543 -293.533323 C -147.191337 -305.831159 -132.294641 -234.581316 -109.24488 -245.368017 C -83.719416 -257.313285 -132.97188 -318.760517 -107.46727 -330.750248 C -90.417318 -338.765439 -81.316407 -292.009181 -62.757061 -295.248756 C -46.00209 -298.173372 -52.644573 -338.8012 -35.638518 -339.077845 C -14.395086 -339.42342 -21.098633 -287.958843 -0.000001 -285.45873 C 14.867023 -283.697041 18.322878 -315.143576 33.247171 -316.325707 C 45.028231 -317.258867 56.478233 -306.250233 63.000753 -296.39524 C 74.97036 -278.310145 57.395251 -244.036126 75.33031 -231.842857 C 83.795436 -226.087785 96.314768 -233.796404 105.802978 -237.637381 C 124.320987 -245.133763 139.565213 -281.648449 156.395221 -270.88447 C 176.089893 -258.288335 127.555838 -215.307329 145.905823 -200.822138 C 161.204895 -188.745289 181.423358 -219.956459 200.692433 -222.891529 C 214.764873 -225.035047 230.351322 -224.393839 243.687939 -219.417606 C 254.811802 -215.267009 270.099872 -209.704183 272.68261 -198.115513 C 277.532373 -176.354763 229.490369 -158.237601 240.376002 -138.78115 C 250.680351 -120.36366 297.202056 -155.352507 304.241407 -135.457003 C 313.681211 -108.777036 234.226406 -105.735675 240.458165 -78.129595 C 244.481895 -60.30487 276.876032 -69.873378 293.549288 -62.395828 C 308.959498 -55.484723 338.26858 -52.269366 337.044442 -35.424799 C 334.918615 -6.172674 258.84943 -29.141152 255.532921 -0.000001 C 253.567642 17.268308 293.273364 14.551186 297.882342 31.308695 Z " fill="#ff772b" stroke="undefined" stroke-width="1" stroke-opacity="1" fill-opacity="1" visibility="visible" stroke-linecap="butt" stroke-linejoin="miter" stroke-miterlimit="4"></path></g></svg>